<?xml version="1.0" encoding="UTF-8"?>
<svg id="Layer_1" xmlns="http://www.w3.org/2000/svg" version="1.1" viewBox="0 0 858.15 216">
  <!-- Generator: Adobe Illustrator 30.4.0, SVG Export Plug-In . SVG Version: 2.1.4 Build 226)  -->
  <defs>
    <style>
      .st0, .st1 {
        fill: #fff;
      }

      .st2 {
        fill: #29abe3;
      }

      .st1 {
        fill-rule: evenodd;
      }
    </style>
  </defs>
  <path class="st0" d="M421.14,77v17.86c-4.46-6.04-10.6-10.19-18.18-14.46-7.58-4.26-16.04-6.4-27.54-6.4s-19.81,2.84-28.81,8.53-15.95,12.68-21.12,22.99c-4.99,10.13-7.49,22.12-7.49,35.98s2.49,25.68,7.49,35.98c5.17,10.31,12.21,18.3,21.12,23.99,9.09,5.69,16.7,8.53,28.81,8.53s21.39-2.31,29.41-6.93c6.49-3.8,11.74-8.28,15.77-13.42v19.68h25.4V77h-24.86ZM415.26,166.02c-3.57,6.75-8.29,11.99-14.17,15.73-5.88,3.55-12.48,5.33-19.78,5.33-11.76,0-21.3-4.18-28.61-12.53-7.13-8.35-10.69-19.37-10.69-33.05s3.57-24.7,10.69-33.05c7.13-8.35,16.66-12.53,28.61-12.53,7.31,0,13.9,1.78,19.78,5.33s10.6,8.71,14.17,15.46,5.35,15.02,5.35,24.79-1.78,17.77-5.35,24.52Z"/>
  <path class="st0" d="M161.08,77.55l22.09,88.91,30.3-88.96.17-.5h20.62l.17.5,28.94,88.7,23.07-88.65.14-.55h23.97l-.25.92-35.56,130.72h-22.98l-28.81-100.03-28.59,100.03h-23.23l-35.41-130.72-.25-.92h25.48l.14.55h-.01Z"/>
  <path class="st0" d="M495.25,91.5c2.49-2.14,5.11-4.18,7.87-6.12h0c3.21-2.2,6.55-4.1,10.01-5.71,3.47-1.61,7.07-2.88,10.79-3.81,3.82-.93,7.81-1.4,11.96-1.4,7.01,0,13.36.97,19.05,2.92,5.7,1.96,10.56,4.94,14.57,8.95,4.02,4.02,7.08,9.18,9.2,15.45l.4,1.18c1.94,5.94,2.9,12.87,2.9,20.76v84.78h-25.79v-81.89c0-9.83-2.52-17.13-7.44-22.05h0c-4.84-5.01-11.85-7.56-21.17-7.56-5.31,0-10.68,1.27-16.11,3.82-5.36,2.52-10.45,5.64-15.25,9.35v98.33h-25.79V77.39h24.79v14.11h0Z"/>
  <path class="st0" d="M630.89,76.85h30.47v20.4h-30.72l-.37,71.26c0,5.05.58,9.09,1.71,12.16,1.11,3.02,2.88,5.07,5.26,6.23,2.48,1.12,5.3,1.69,8.48,1.69,3.46,0,6.49-.29,9.1-.86,2.62-.65,5.5-1.72,8.65-3.21l.74-.35,5.66,16.45.21.6-.57.29c-4.06,2.12-8.33,3.77-12.81,4.95h0c-4.51,1.27-9.8,1.9-15.86,1.9-5.74,0-10.8-.72-15.15-2.17-4.3-1.38-7.96-3.75-10.98-7.1h0c-2.93-3.38-5.11-7.83-6.55-13.35-1.26-4.9-1.97-10.81-2.12-17.73l-.03-3.03.62-90.52,24.3-41.47v43.85h-.04Z"/>
  <path class="st0" d="M720.12,208.5h-25.04v-78l25.04-43.64v121.64Z"/>
  <path class="st2" d="M720.14,86.65v-52.15h29.44l-29.44,52.15Z"/>
  <path class="st0" d="M791.45,72.85c9.34,0,17.22,1.3,23.6,3.94s12.16,6.56,17.17,13.45c1.02,1.41,1.59,2.21,2.42,3.75,1.13,2.1,1.58,3.39,2.27,5.67,1.05,3.46,1.47,6.85,1.52,9.12.02,1.13-.02,2.04-.07,2.67-.05.54-.13,1.07-.22,1.61h-20.71v-.73c0-3.39-.81-6.21-2.38-8.49l-.02-.03c-1.52-2.41-3.53-4.33-6.02-5.78h-.01c-2.51-1.55-5.32-2.65-8.42-3.3h-.02c-3.12-.74-6.16-1.11-9.11-1.11-3.29,0-6.32.36-9.09,1.1h0c-2.69.74-4.99,1.79-6.91,3.15s-3.43,3.04-4.55,5.03c-1.02,1.89-1.54,4.02-1.54,6.41,0,4.18,1.24,7.45,3.66,9.87,2.56,2.4,6.88,4.71,13.03,6.87l24.94,8.77s-7.79-2.86,1.99.69c9.77,3.55,16.91,7.08,21.8,13.22,4.89,6.13,7.56,12.89,7.56,21.65,0,5.87-1.19,11.29-3.59,16.24h0c-2.31,4.86-5.64,9.05-9.98,12.54-4.26,3.41-9.4,6.04-15.41,7.9h0c-6.02,1.94-11.27,2.92-20.03,2.92s-18.56-1.65-25.04-4.97-12.04-7.02-17.15-14.53c-2.93-4.3-4.2-7.09-5.53-12.12-.93-3.52-1.38-6.1-1.31-9.22h23.31v.74c0,3.48.72,6.43,2.14,8.88l.59.88c1.43,2.02,3.21,3.69,5.32,5.03,2.52,1.54,5.33,2.68,8.43,3.42,3.21.74,6.45,1.11,9.74,1.11,2.8,0,5.51-.28,8.11-.85l1.11-.26c2.94-.82,5.49-1.96,7.67-3.41,2.26-1.53,4.02-3.34,5.3-5.42,1.26-2.05,1.9-4.38,1.9-7.02,0-4-1.31-7.37-3.94-10.15h0c-2.55-2.8-7.02-5.39-13.5-7.71h-.01l-24.83-7.28c-10.17-3.62-17.82-8.23-22.86-13.87h0c-4.98-5.76-7.45-12.92-7.45-21.43,0-5.61,1.02-10.81,3.07-15.58h0c2.13-4.79,5.16-8.89,9.09-12.3,4.01-3.5,8.86-6.21,14.54-8.16,5.69-1.95,12.17-2.92,19.42-2.92h0Z"/>
  <path class="st1" d="M44.96,130.15h-3.05V6L15.99,51l.07,157.39h25.92l-.07-58.33h.65l53.24,58.33h33.79l-62.88-68.59,60.93-63.06h-30.88l-51.8,53.41h0Z"/>
</svg>